<mxfile host="www.draw.io" modified="2020-01-10T05:35:41.973Z" agent="Mozilla/5.0 (Macintosh; Intel Mac OS X 10_15_2) AppleWebKit/537.36 (KHTML, like Gecko) Chrome/79.0.3945.88 Safari/537.36" etag="jMyGX1o5clSp715vbnrt" version="12.5.1" type="github" pages="4">
  <diagram id="A18nGdBbwxPAaSA6_bi8" name="Header">
    <mxGraphModel dx="932" dy="593" grid="1" gridSize="10" guides="1" tooltips="1" connect="1" arrows="1" fold="1" page="1" pageScale="1" pageWidth="827" pageHeight="1169" math="0" shadow="0">
      <root>
        <mxCell id="0"/>
        <mxCell id="1" parent="0"/>
        <mxCell id="4ltpYzZoRs7PCbjqY4Qz-1" value="" style="strokeWidth=1;shadow=0;dashed=0;align=center;html=1;shape=mxgraph.mockup.containers.browserWindow;rSize=0;strokeColor=#666666;strokeColor2=#008cff;strokeColor3=#c4c4c4;mainText=,;recursiveResize=0;" vertex="1" parent="1">
          <mxGeometry x="40" y="40" width="760" height="380" as="geometry"/>
        </mxCell>
        <mxCell id="4ltpYzZoRs7PCbjqY4Qz-2" value="Page 1" style="strokeWidth=1;shadow=0;dashed=0;align=center;html=1;shape=mxgraph.mockup.containers.anchor;fontSize=17;fontColor=#666666;align=left;" vertex="1" parent="4ltpYzZoRs7PCbjqY4Qz-1">
          <mxGeometry x="60" y="12" width="110" height="26" as="geometry"/>
        </mxCell>
        <mxCell id="4ltpYzZoRs7PCbjqY4Qz-3" value="https://www.draw.io" style="strokeWidth=1;shadow=0;dashed=0;align=center;html=1;shape=mxgraph.mockup.containers.anchor;rSize=0;fontSize=17;fontColor=#666666;align=left;" vertex="1" parent="4ltpYzZoRs7PCbjqY4Qz-1">
          <mxGeometry x="130" y="60" width="250" height="26" as="geometry"/>
        </mxCell>
        <mxCell id="4ltpYzZoRs7PCbjqY4Qz-4" value="Nice Gallery" style="text;html=1;strokeColor=none;fillColor=none;align=center;verticalAlign=middle;whiteSpace=wrap;rounded=0;fontSize=24;" vertex="1" parent="4ltpYzZoRs7PCbjqY4Qz-1">
          <mxGeometry x="298.38" y="165" width="166.75" height="20" as="geometry"/>
        </mxCell>
        <mxCell id="4ltpYzZoRs7PCbjqY4Qz-5" value="" style="rounded=0;whiteSpace=wrap;html=1;fontSize=17;" vertex="1" parent="4ltpYzZoRs7PCbjqY4Qz-1">
          <mxGeometry x="43.5" y="160" width="220" height="30" as="geometry"/>
        </mxCell>
        <mxCell id="4ltpYzZoRs7PCbjqY4Qz-10" value="" style="html=1;verticalLabelPosition=bottom;align=center;labelBackgroundColor=#ffffff;verticalAlign=top;strokeWidth=2;strokeColor=#0080F0;shadow=0;dashed=0;shape=mxgraph.ios7.icons.looking_glass;fontSize=17;" vertex="1" parent="4ltpYzZoRs7PCbjqY4Qz-1">
          <mxGeometry x="233.5" y="165" width="20" height="20" as="geometry"/>
        </mxCell>
        <mxCell id="4ltpYzZoRs7PCbjqY4Qz-11" value="" style="shape=image;html=1;verticalAlign=top;verticalLabelPosition=bottom;labelBackgroundColor=#ffffff;imageAspect=0;aspect=fixed;image=https://cdn3.iconfinder.com/data/icons/peelicons-vol-1/50/Pinterest-128.png;fontSize=17;" vertex="1" parent="4ltpYzZoRs7PCbjqY4Qz-1">
          <mxGeometry x="692" y="160" width="28" height="28" as="geometry"/>
        </mxCell>
        <mxCell id="4ltpYzZoRs7PCbjqY4Qz-12" value="" style="shape=image;html=1;verticalAlign=top;verticalLabelPosition=bottom;labelBackgroundColor=#ffffff;imageAspect=0;aspect=fixed;image=https://cdn3.iconfinder.com/data/icons/peelicons-vol-1/50/Twitter-128.png;fontSize=17;" vertex="1" parent="4ltpYzZoRs7PCbjqY4Qz-1">
          <mxGeometry x="612" y="160" width="28" height="28" as="geometry"/>
        </mxCell>
        <mxCell id="4ltpYzZoRs7PCbjqY4Qz-13" value="" style="shape=image;html=1;verticalAlign=top;verticalLabelPosition=bottom;labelBackgroundColor=#ffffff;imageAspect=0;aspect=fixed;image=https://cdn3.iconfinder.com/data/icons/peelicons-vol-1/50/Intsagram-128.png;fontSize=17;" vertex="1" parent="4ltpYzZoRs7PCbjqY4Qz-1">
          <mxGeometry x="652" y="160" width="28" height="28" as="geometry"/>
        </mxCell>
        <mxCell id="4ltpYzZoRs7PCbjqY4Qz-14" value="" style="shape=image;html=1;verticalAlign=top;verticalLabelPosition=bottom;labelBackgroundColor=#ffffff;imageAspect=0;aspect=fixed;image=https://cdn3.iconfinder.com/data/icons/peelicons-vol-1/50/Facebook-128.png;fontSize=17;" vertex="1" parent="4ltpYzZoRs7PCbjqY4Qz-1">
          <mxGeometry x="572" y="160" width="28" height="28" as="geometry"/>
        </mxCell>
        <mxCell id="4ltpYzZoRs7PCbjqY4Qz-16" value="" style="rounded=0;whiteSpace=wrap;html=1;fontSize=17;" vertex="1" parent="4ltpYzZoRs7PCbjqY4Qz-1">
          <mxGeometry x="43.5" y="210" width="676.5" height="30" as="geometry"/>
        </mxCell>
        <mxCell id="4ltpYzZoRs7PCbjqY4Qz-17" value="Graphic design . Illustration . Photography&amp;nbsp; |&amp;nbsp; Upload .&amp;nbsp; Login" style="text;html=1;strokeColor=none;fillColor=none;align=center;verticalAlign=middle;whiteSpace=wrap;rounded=0;fontSize=17;" vertex="1" parent="4ltpYzZoRs7PCbjqY4Qz-1">
          <mxGeometry x="60" y="215" width="650" height="20" as="geometry"/>
        </mxCell>
      </root>
    </mxGraphModel>
  </diagram>
  <diagram id="c3xXK0anvDLKavptgnYR" name="index">
    <mxGraphModel dx="932" dy="593" grid="1" gridSize="10" guides="1" tooltips="1" connect="1" arrows="1" fold="1" page="1" pageScale="1" pageWidth="827" pageHeight="1169" math="0" shadow="0">
      <root>
        <mxCell id="eUMmXK59JN6cog55ulIZ-0"/>
        <mxCell id="eUMmXK59JN6cog55ulIZ-1" parent="eUMmXK59JN6cog55ulIZ-0"/>
        <mxCell id="2s16kMAzSXPqWqWgAg2O-0" value="" style="strokeWidth=1;shadow=0;dashed=0;align=center;html=1;shape=mxgraph.mockup.containers.browserWindow;rSize=0;strokeColor=#666666;strokeColor2=#008cff;strokeColor3=#c4c4c4;mainText=,;recursiveResize=0;" vertex="1" parent="eUMmXK59JN6cog55ulIZ-1">
          <mxGeometry x="40" y="40" width="760" height="960" as="geometry"/>
        </mxCell>
        <mxCell id="2s16kMAzSXPqWqWgAg2O-1" value="Page 1" style="strokeWidth=1;shadow=0;dashed=0;align=center;html=1;shape=mxgraph.mockup.containers.anchor;fontSize=17;fontColor=#666666;align=left;" vertex="1" parent="2s16kMAzSXPqWqWgAg2O-0">
          <mxGeometry x="60" y="12" width="110" height="26" as="geometry"/>
        </mxCell>
        <mxCell id="2s16kMAzSXPqWqWgAg2O-2" value="https://www.draw.io" style="strokeWidth=1;shadow=0;dashed=0;align=center;html=1;shape=mxgraph.mockup.containers.anchor;rSize=0;fontSize=17;fontColor=#666666;align=left;" vertex="1" parent="2s16kMAzSXPqWqWgAg2O-0">
          <mxGeometry x="130" y="60" width="250" height="26" as="geometry"/>
        </mxCell>
        <mxCell id="2s16kMAzSXPqWqWgAg2O-3" value="" style="verticalLabelPosition=bottom;shadow=0;dashed=0;align=center;html=1;verticalAlign=top;strokeWidth=1;shape=mxgraph.mockup.graphics.simpleIcon;strokeColor=#999999;fontSize=14;" vertex="1" parent="2s16kMAzSXPqWqWgAg2O-0">
          <mxGeometry x="30" y="130" width="700" height="90" as="geometry"/>
        </mxCell>
        <mxCell id="2s16kMAzSXPqWqWgAg2O-16" value="" style="verticalLabelPosition=bottom;shadow=0;dashed=0;align=center;html=1;verticalAlign=top;strokeWidth=1;shape=mxgraph.mockup.graphics.simpleIcon;strokeColor=#999999;fontSize=14;" vertex="1" parent="2s16kMAzSXPqWqWgAg2O-0">
          <mxGeometry x="30" y="540" width="210" height="210" as="geometry"/>
        </mxCell>
        <mxCell id="2s16kMAzSXPqWqWgAg2O-17" value="" style="verticalLabelPosition=bottom;shadow=0;dashed=0;align=center;html=1;verticalAlign=top;strokeWidth=1;shape=mxgraph.mockup.graphics.simpleIcon;strokeColor=#999999;fontSize=14;" vertex="1" parent="2s16kMAzSXPqWqWgAg2O-0">
          <mxGeometry x="275" y="540" width="210" height="210" as="geometry"/>
        </mxCell>
        <mxCell id="2s16kMAzSXPqWqWgAg2O-18" value="" style="verticalLabelPosition=bottom;shadow=0;dashed=0;align=center;html=1;verticalAlign=top;strokeWidth=1;shape=mxgraph.mockup.graphics.simpleIcon;strokeColor=#999999;fontSize=14;" vertex="1" parent="2s16kMAzSXPqWqWgAg2O-0">
          <mxGeometry x="520" y="540" width="210" height="210" as="geometry"/>
        </mxCell>
        <mxCell id="2s16kMAzSXPqWqWgAg2O-19" value="" style="verticalLabelPosition=bottom;shadow=0;dashed=0;align=center;html=1;verticalAlign=top;strokeWidth=1;shape=mxgraph.mockup.graphics.simpleIcon;strokeColor=#999999;fontSize=14;" vertex="1" parent="2s16kMAzSXPqWqWgAg2O-0">
          <mxGeometry x="30" y="260" width="210" height="210" as="geometry"/>
        </mxCell>
        <mxCell id="2s16kMAzSXPqWqWgAg2O-20" value="articles / category" style="text;html=1;strokeColor=none;fillColor=none;align=left;verticalAlign=middle;whiteSpace=wrap;rounded=0;fontSize=14;" vertex="1" parent="2s16kMAzSXPqWqWgAg2O-0">
          <mxGeometry x="290" y="260" width="170" height="20" as="geometry"/>
        </mxCell>
        <mxCell id="2s16kMAzSXPqWqWgAg2O-23" value="Heading" style="text;html=1;strokeColor=none;fillColor=none;align=left;verticalAlign=middle;whiteSpace=wrap;rounded=0;fontSize=32;" vertex="1" parent="2s16kMAzSXPqWqWgAg2O-0">
          <mxGeometry x="288" y="290" width="170" height="20" as="geometry"/>
        </mxCell>
        <mxCell id="2s16kMAzSXPqWqWgAg2O-24" value="Description&amp;nbsp;&lt;span style=&quot;font-family: &amp;#34;open sans&amp;#34; , &amp;#34;arial&amp;#34; , sans-serif ; text-align: justify ; background-color: rgb(255 , 255 , 255)&quot;&gt;Cras quis cursus sapien. Vivamus et bibendum eros. Suspendisse at rhoncus ex, in aliquam nisi. Phasellus a est nisl. Duis ornare, urna nec ultricies lobortis, odio augue blandit erat, in vehicula metus augue vel elit. Maecenas pharetra feugiat neque nec cursus. Quisque eu tempus augue. Nam fringilla auctor risus, fermentum pharetra elit tincidunt sed. Sed non blandit orci. Aenean faucibus laoreet velit, id ultricies erat malesuada nec...&lt;/span&gt;" style="text;html=1;strokeColor=none;fillColor=none;align=left;verticalAlign=middle;whiteSpace=wrap;rounded=0;fontSize=14;" vertex="1" parent="2s16kMAzSXPqWqWgAg2O-0">
          <mxGeometry x="288" y="320" width="442" height="120" as="geometry"/>
        </mxCell>
        <mxCell id="2s16kMAzSXPqWqWgAg2O-25" value="Author - 11 hours ago" style="text;html=1;strokeColor=none;fillColor=none;align=left;verticalAlign=middle;whiteSpace=wrap;rounded=0;fontSize=14;fontColor=#999999;" vertex="1" parent="2s16kMAzSXPqWqWgAg2O-0">
          <mxGeometry x="288" y="450" width="170" height="20" as="geometry"/>
        </mxCell>
        <mxCell id="2s16kMAzSXPqWqWgAg2O-26" value="articles / category" style="text;html=1;strokeColor=none;fillColor=none;align=left;verticalAlign=middle;whiteSpace=wrap;rounded=0;fontSize=14;" vertex="1" parent="2s16kMAzSXPqWqWgAg2O-0">
          <mxGeometry x="32" y="760" width="170" height="20" as="geometry"/>
        </mxCell>
        <mxCell id="2s16kMAzSXPqWqWgAg2O-27" value="Heading" style="text;html=1;strokeColor=none;fillColor=none;align=left;verticalAlign=middle;whiteSpace=wrap;rounded=0;fontSize=32;" vertex="1" parent="2s16kMAzSXPqWqWgAg2O-0">
          <mxGeometry x="30" y="790" width="170" height="20" as="geometry"/>
        </mxCell>
        <mxCell id="2s16kMAzSXPqWqWgAg2O-28" value="Description&amp;nbsp;&lt;span style=&quot;font-family: &amp;#34;open sans&amp;#34; , &amp;#34;arial&amp;#34; , sans-serif ; text-align: justify ; background-color: rgb(255 , 255 , 255)&quot;&gt;Cras quis cursus sapien. Vivamus et bibendum eros. Suspendisse at rhoncus ex...&lt;/span&gt;" style="text;html=1;strokeColor=none;fillColor=none;align=left;verticalAlign=middle;whiteSpace=wrap;rounded=0;fontSize=14;" vertex="1" parent="2s16kMAzSXPqWqWgAg2O-0">
          <mxGeometry x="30" y="820" width="210" height="70" as="geometry"/>
        </mxCell>
        <mxCell id="2s16kMAzSXPqWqWgAg2O-29" value="Author - 11 hours ago" style="text;html=1;strokeColor=none;fillColor=none;align=left;verticalAlign=middle;whiteSpace=wrap;rounded=0;fontSize=14;fontColor=#999999;" vertex="1" parent="2s16kMAzSXPqWqWgAg2O-0">
          <mxGeometry x="32" y="890" width="170" height="20" as="geometry"/>
        </mxCell>
        <mxCell id="2s16kMAzSXPqWqWgAg2O-30" value="articles / category" style="text;html=1;strokeColor=none;fillColor=none;align=left;verticalAlign=middle;whiteSpace=wrap;rounded=0;fontSize=14;" vertex="1" parent="2s16kMAzSXPqWqWgAg2O-0">
          <mxGeometry x="277" y="760" width="170" height="20" as="geometry"/>
        </mxCell>
        <mxCell id="2s16kMAzSXPqWqWgAg2O-31" value="Heading" style="text;html=1;strokeColor=none;fillColor=none;align=left;verticalAlign=middle;whiteSpace=wrap;rounded=0;fontSize=32;" vertex="1" parent="2s16kMAzSXPqWqWgAg2O-0">
          <mxGeometry x="275" y="790" width="170" height="20" as="geometry"/>
        </mxCell>
        <mxCell id="2s16kMAzSXPqWqWgAg2O-32" value="Description&amp;nbsp;&lt;span style=&quot;font-family: &amp;#34;open sans&amp;#34; , &amp;#34;arial&amp;#34; , sans-serif ; text-align: justify ; background-color: rgb(255 , 255 , 255)&quot;&gt;Cras quis cursus sapien. Vivamus et bibendum eros. Suspendisse at rhoncus ex...&lt;/span&gt;" style="text;html=1;strokeColor=none;fillColor=none;align=left;verticalAlign=middle;whiteSpace=wrap;rounded=0;fontSize=14;" vertex="1" parent="2s16kMAzSXPqWqWgAg2O-0">
          <mxGeometry x="275" y="820" width="210" height="70" as="geometry"/>
        </mxCell>
        <mxCell id="2s16kMAzSXPqWqWgAg2O-33" value="Author - 11 hours ago" style="text;html=1;strokeColor=none;fillColor=none;align=left;verticalAlign=middle;whiteSpace=wrap;rounded=0;fontSize=14;fontColor=#999999;" vertex="1" parent="2s16kMAzSXPqWqWgAg2O-0">
          <mxGeometry x="277" y="890" width="170" height="20" as="geometry"/>
        </mxCell>
        <mxCell id="2s16kMAzSXPqWqWgAg2O-34" value="articles / category" style="text;html=1;strokeColor=none;fillColor=none;align=left;verticalAlign=middle;whiteSpace=wrap;rounded=0;fontSize=14;" vertex="1" parent="2s16kMAzSXPqWqWgAg2O-0">
          <mxGeometry x="522" y="760" width="170" height="20" as="geometry"/>
        </mxCell>
        <mxCell id="2s16kMAzSXPqWqWgAg2O-35" value="Heading" style="text;html=1;strokeColor=none;fillColor=none;align=left;verticalAlign=middle;whiteSpace=wrap;rounded=0;fontSize=32;" vertex="1" parent="2s16kMAzSXPqWqWgAg2O-0">
          <mxGeometry x="520" y="790" width="170" height="20" as="geometry"/>
        </mxCell>
        <mxCell id="2s16kMAzSXPqWqWgAg2O-36" value="Description&amp;nbsp;&lt;span style=&quot;font-family: &amp;#34;open sans&amp;#34; , &amp;#34;arial&amp;#34; , sans-serif ; text-align: justify ; background-color: rgb(255 , 255 , 255)&quot;&gt;Cras quis cursus sapien. Vivamus et bibendum eros. Suspendisse at rhoncus ex...&lt;/span&gt;" style="text;html=1;strokeColor=none;fillColor=none;align=left;verticalAlign=middle;whiteSpace=wrap;rounded=0;fontSize=14;" vertex="1" parent="2s16kMAzSXPqWqWgAg2O-0">
          <mxGeometry x="520" y="820" width="210" height="70" as="geometry"/>
        </mxCell>
        <mxCell id="2s16kMAzSXPqWqWgAg2O-37" value="Author - 11 hours ago" style="text;html=1;strokeColor=none;fillColor=none;align=left;verticalAlign=middle;whiteSpace=wrap;rounded=0;fontSize=14;fontColor=#999999;" vertex="1" parent="2s16kMAzSXPqWqWgAg2O-0">
          <mxGeometry x="522" y="890" width="170" height="20" as="geometry"/>
        </mxCell>
      </root>
    </mxGraphModel>
  </diagram>
  <diagram name="Category" id="BLe5OnWUSDlEYPQm9MvP">
    <mxGraphModel dx="932" dy="593" grid="1" gridSize="10" guides="1" tooltips="1" connect="1" arrows="1" fold="1" page="1" pageScale="1" pageWidth="827" pageHeight="1169" math="0" shadow="0">
      <root>
        <mxCell id="T9JU4hrUAn5fR7NwWRJ4-0"/>
        <mxCell id="T9JU4hrUAn5fR7NwWRJ4-1" parent="T9JU4hrUAn5fR7NwWRJ4-0"/>
        <mxCell id="T9JU4hrUAn5fR7NwWRJ4-2" value="" style="strokeWidth=1;shadow=0;dashed=0;align=center;html=1;shape=mxgraph.mockup.containers.browserWindow;rSize=0;strokeColor=#666666;strokeColor2=#008cff;strokeColor3=#c4c4c4;mainText=,;recursiveResize=0;" vertex="1" parent="T9JU4hrUAn5fR7NwWRJ4-1">
          <mxGeometry x="40" y="40" width="760" height="960" as="geometry"/>
        </mxCell>
        <mxCell id="T9JU4hrUAn5fR7NwWRJ4-3" value="Page 1" style="strokeWidth=1;shadow=0;dashed=0;align=center;html=1;shape=mxgraph.mockup.containers.anchor;fontSize=17;fontColor=#666666;align=left;" vertex="1" parent="T9JU4hrUAn5fR7NwWRJ4-2">
          <mxGeometry x="60" y="12" width="110" height="26" as="geometry"/>
        </mxCell>
        <mxCell id="T9JU4hrUAn5fR7NwWRJ4-4" value="https://www.draw.io" style="strokeWidth=1;shadow=0;dashed=0;align=center;html=1;shape=mxgraph.mockup.containers.anchor;rSize=0;fontSize=17;fontColor=#666666;align=left;" vertex="1" parent="T9JU4hrUAn5fR7NwWRJ4-2">
          <mxGeometry x="130" y="60" width="250" height="26" as="geometry"/>
        </mxCell>
        <mxCell id="T9JU4hrUAn5fR7NwWRJ4-5" value="" style="verticalLabelPosition=bottom;shadow=0;dashed=0;align=center;html=1;verticalAlign=top;strokeWidth=1;shape=mxgraph.mockup.graphics.simpleIcon;strokeColor=#999999;fontSize=14;" vertex="1" parent="T9JU4hrUAn5fR7NwWRJ4-2">
          <mxGeometry x="30" y="130" width="700" height="90" as="geometry"/>
        </mxCell>
        <mxCell id="T9JU4hrUAn5fR7NwWRJ4-6" value="" style="verticalLabelPosition=bottom;shadow=0;dashed=0;align=center;html=1;verticalAlign=top;strokeWidth=1;shape=mxgraph.mockup.graphics.simpleIcon;strokeColor=#999999;fontSize=14;" vertex="1" parent="T9JU4hrUAn5fR7NwWRJ4-2">
          <mxGeometry x="30" y="350" width="160" height="160" as="geometry"/>
        </mxCell>
        <mxCell id="T9JU4hrUAn5fR7NwWRJ4-15" value="Heading" style="text;html=1;strokeColor=none;fillColor=none;align=left;verticalAlign=middle;whiteSpace=wrap;rounded=0;fontSize=24;" vertex="1" parent="T9JU4hrUAn5fR7NwWRJ4-2">
          <mxGeometry x="30" y="530" width="150" height="30" as="geometry"/>
        </mxCell>
        <mxCell id="T9JU4hrUAn5fR7NwWRJ4-17" value="Author - 11 hours ago" style="text;html=1;strokeColor=none;fillColor=none;align=left;verticalAlign=middle;whiteSpace=wrap;rounded=0;fontSize=14;fontColor=#999999;" vertex="1" parent="T9JU4hrUAn5fR7NwWRJ4-2">
          <mxGeometry x="30" y="510" width="170" height="20" as="geometry"/>
        </mxCell>
        <mxCell id="T9JU4hrUAn5fR7NwWRJ4-26" value="Category" style="text;html=1;strokeColor=none;fillColor=none;align=center;verticalAlign=middle;whiteSpace=wrap;rounded=0;fontSize=32;fontColor=#999999;" vertex="1" parent="T9JU4hrUAn5fR7NwWRJ4-2">
          <mxGeometry x="275" y="250" width="210" height="40" as="geometry"/>
        </mxCell>
        <mxCell id="T9JU4hrUAn5fR7NwWRJ4-27" value="" style="verticalLabelPosition=bottom;shadow=0;dashed=0;align=center;html=1;verticalAlign=top;strokeWidth=1;shape=mxgraph.mockup.graphics.simpleIcon;strokeColor=#999999;fontSize=14;" vertex="1" parent="T9JU4hrUAn5fR7NwWRJ4-2">
          <mxGeometry x="210" y="350" width="160" height="160" as="geometry"/>
        </mxCell>
        <mxCell id="T9JU4hrUAn5fR7NwWRJ4-28" value="Author - 11 hours ago" style="text;html=1;strokeColor=none;fillColor=none;align=left;verticalAlign=middle;whiteSpace=wrap;rounded=0;fontSize=14;fontColor=#999999;" vertex="1" parent="T9JU4hrUAn5fR7NwWRJ4-2">
          <mxGeometry x="210" y="510" width="170" height="20" as="geometry"/>
        </mxCell>
        <mxCell id="T9JU4hrUAn5fR7NwWRJ4-29" value="Heading" style="text;html=1;strokeColor=none;fillColor=none;align=left;verticalAlign=middle;whiteSpace=wrap;rounded=0;fontSize=24;" vertex="1" parent="T9JU4hrUAn5fR7NwWRJ4-2">
          <mxGeometry x="210" y="530" width="150" height="30" as="geometry"/>
        </mxCell>
        <mxCell id="T9JU4hrUAn5fR7NwWRJ4-30" value="" style="verticalLabelPosition=bottom;shadow=0;dashed=0;align=center;html=1;verticalAlign=top;strokeWidth=1;shape=mxgraph.mockup.graphics.simpleIcon;strokeColor=#999999;fontSize=14;" vertex="1" parent="T9JU4hrUAn5fR7NwWRJ4-2">
          <mxGeometry x="390" y="350" width="160" height="160" as="geometry"/>
        </mxCell>
        <mxCell id="T9JU4hrUAn5fR7NwWRJ4-31" value="Author - 11 hours ago" style="text;html=1;strokeColor=none;fillColor=none;align=left;verticalAlign=middle;whiteSpace=wrap;rounded=0;fontSize=14;fontColor=#999999;" vertex="1" parent="T9JU4hrUAn5fR7NwWRJ4-2">
          <mxGeometry x="390" y="510" width="170" height="20" as="geometry"/>
        </mxCell>
        <mxCell id="T9JU4hrUAn5fR7NwWRJ4-32" value="Heading" style="text;html=1;strokeColor=none;fillColor=none;align=left;verticalAlign=middle;whiteSpace=wrap;rounded=0;fontSize=24;" vertex="1" parent="T9JU4hrUAn5fR7NwWRJ4-2">
          <mxGeometry x="390" y="530" width="150" height="30" as="geometry"/>
        </mxCell>
        <mxCell id="T9JU4hrUAn5fR7NwWRJ4-33" value="" style="verticalLabelPosition=bottom;shadow=0;dashed=0;align=center;html=1;verticalAlign=top;strokeWidth=1;shape=mxgraph.mockup.graphics.simpleIcon;strokeColor=#999999;fontSize=14;" vertex="1" parent="T9JU4hrUAn5fR7NwWRJ4-2">
          <mxGeometry x="570" y="350" width="160" height="160" as="geometry"/>
        </mxCell>
        <mxCell id="T9JU4hrUAn5fR7NwWRJ4-34" value="Author - 11 hours ago" style="text;html=1;strokeColor=none;fillColor=none;align=left;verticalAlign=middle;whiteSpace=wrap;rounded=0;fontSize=14;fontColor=#999999;" vertex="1" parent="T9JU4hrUAn5fR7NwWRJ4-2">
          <mxGeometry x="570" y="510" width="170" height="20" as="geometry"/>
        </mxCell>
        <mxCell id="T9JU4hrUAn5fR7NwWRJ4-35" value="Heading" style="text;html=1;strokeColor=none;fillColor=none;align=left;verticalAlign=middle;whiteSpace=wrap;rounded=0;fontSize=24;" vertex="1" parent="T9JU4hrUAn5fR7NwWRJ4-2">
          <mxGeometry x="570" y="530" width="150" height="30" as="geometry"/>
        </mxCell>
        <mxCell id="T9JU4hrUAn5fR7NwWRJ4-36" value="" style="verticalLabelPosition=bottom;shadow=0;dashed=0;align=center;html=1;verticalAlign=top;strokeWidth=1;shape=mxgraph.mockup.graphics.simpleIcon;strokeColor=#999999;fontSize=14;" vertex="1" parent="T9JU4hrUAn5fR7NwWRJ4-2">
          <mxGeometry x="30" y="580" width="160" height="160" as="geometry"/>
        </mxCell>
        <mxCell id="T9JU4hrUAn5fR7NwWRJ4-37" value="Heading" style="text;html=1;strokeColor=none;fillColor=none;align=left;verticalAlign=middle;whiteSpace=wrap;rounded=0;fontSize=24;" vertex="1" parent="T9JU4hrUAn5fR7NwWRJ4-2">
          <mxGeometry x="30" y="760" width="150" height="30" as="geometry"/>
        </mxCell>
        <mxCell id="T9JU4hrUAn5fR7NwWRJ4-38" value="Author - 11 hours ago" style="text;html=1;strokeColor=none;fillColor=none;align=left;verticalAlign=middle;whiteSpace=wrap;rounded=0;fontSize=14;fontColor=#999999;" vertex="1" parent="T9JU4hrUAn5fR7NwWRJ4-2">
          <mxGeometry x="30" y="740" width="170" height="20" as="geometry"/>
        </mxCell>
        <mxCell id="T9JU4hrUAn5fR7NwWRJ4-39" value="" style="verticalLabelPosition=bottom;shadow=0;dashed=0;align=center;html=1;verticalAlign=top;strokeWidth=1;shape=mxgraph.mockup.graphics.simpleIcon;strokeColor=#999999;fontSize=14;" vertex="1" parent="T9JU4hrUAn5fR7NwWRJ4-2">
          <mxGeometry x="210" y="580" width="160" height="160" as="geometry"/>
        </mxCell>
        <mxCell id="T9JU4hrUAn5fR7NwWRJ4-40" value="Author - 11 hours ago" style="text;html=1;strokeColor=none;fillColor=none;align=left;verticalAlign=middle;whiteSpace=wrap;rounded=0;fontSize=14;fontColor=#999999;" vertex="1" parent="T9JU4hrUAn5fR7NwWRJ4-2">
          <mxGeometry x="210" y="740" width="170" height="20" as="geometry"/>
        </mxCell>
        <mxCell id="T9JU4hrUAn5fR7NwWRJ4-41" value="Heading" style="text;html=1;strokeColor=none;fillColor=none;align=left;verticalAlign=middle;whiteSpace=wrap;rounded=0;fontSize=24;" vertex="1" parent="T9JU4hrUAn5fR7NwWRJ4-2">
          <mxGeometry x="210" y="760" width="150" height="30" as="geometry"/>
        </mxCell>
        <mxCell id="T9JU4hrUAn5fR7NwWRJ4-42" value="" style="verticalLabelPosition=bottom;shadow=0;dashed=0;align=center;html=1;verticalAlign=top;strokeWidth=1;shape=mxgraph.mockup.graphics.simpleIcon;strokeColor=#999999;fontSize=14;" vertex="1" parent="T9JU4hrUAn5fR7NwWRJ4-2">
          <mxGeometry x="390" y="580" width="160" height="160" as="geometry"/>
        </mxCell>
        <mxCell id="T9JU4hrUAn5fR7NwWRJ4-43" value="Author - 11 hours ago" style="text;html=1;strokeColor=none;fillColor=none;align=left;verticalAlign=middle;whiteSpace=wrap;rounded=0;fontSize=14;fontColor=#999999;" vertex="1" parent="T9JU4hrUAn5fR7NwWRJ4-2">
          <mxGeometry x="390" y="740" width="170" height="20" as="geometry"/>
        </mxCell>
        <mxCell id="T9JU4hrUAn5fR7NwWRJ4-44" value="Heading" style="text;html=1;strokeColor=none;fillColor=none;align=left;verticalAlign=middle;whiteSpace=wrap;rounded=0;fontSize=24;" vertex="1" parent="T9JU4hrUAn5fR7NwWRJ4-2">
          <mxGeometry x="390" y="760" width="150" height="30" as="geometry"/>
        </mxCell>
        <mxCell id="T9JU4hrUAn5fR7NwWRJ4-45" value="" style="verticalLabelPosition=bottom;shadow=0;dashed=0;align=center;html=1;verticalAlign=top;strokeWidth=1;shape=mxgraph.mockup.graphics.simpleIcon;strokeColor=#999999;fontSize=14;" vertex="1" parent="T9JU4hrUAn5fR7NwWRJ4-2">
          <mxGeometry x="570" y="580" width="160" height="160" as="geometry"/>
        </mxCell>
        <mxCell id="T9JU4hrUAn5fR7NwWRJ4-46" value="Author - 11 hours ago" style="text;html=1;strokeColor=none;fillColor=none;align=left;verticalAlign=middle;whiteSpace=wrap;rounded=0;fontSize=14;fontColor=#999999;" vertex="1" parent="T9JU4hrUAn5fR7NwWRJ4-2">
          <mxGeometry x="570" y="740" width="170" height="20" as="geometry"/>
        </mxCell>
        <mxCell id="T9JU4hrUAn5fR7NwWRJ4-47" value="Heading" style="text;html=1;strokeColor=none;fillColor=none;align=left;verticalAlign=middle;whiteSpace=wrap;rounded=0;fontSize=24;" vertex="1" parent="T9JU4hrUAn5fR7NwWRJ4-2">
          <mxGeometry x="570" y="760" width="150" height="30" as="geometry"/>
        </mxCell>
        <mxCell id="T9JU4hrUAn5fR7NwWRJ4-48" value="Older posts" style="text;html=1;strokeColor=none;fillColor=none;align=center;verticalAlign=middle;whiteSpace=wrap;rounded=0;fontSize=12;fontColor=#999999;" vertex="1" parent="T9JU4hrUAn5fR7NwWRJ4-2">
          <mxGeometry x="30" y="310" width="80" height="20" as="geometry"/>
        </mxCell>
        <mxCell id="T9JU4hrUAn5fR7NwWRJ4-49" value="Newer posts" style="text;html=1;strokeColor=none;fillColor=none;align=center;verticalAlign=middle;whiteSpace=wrap;rounded=0;fontSize=12;fontColor=#999999;" vertex="1" parent="T9JU4hrUAn5fR7NwWRJ4-2">
          <mxGeometry x="650" y="310" width="80" height="20" as="geometry"/>
        </mxCell>
        <mxCell id="T9JU4hrUAn5fR7NwWRJ4-50" value="1 to 8 of 2573" style="text;html=1;strokeColor=none;fillColor=none;align=center;verticalAlign=middle;whiteSpace=wrap;rounded=0;fontSize=12;fontColor=#999999;" vertex="1" parent="T9JU4hrUAn5fR7NwWRJ4-2">
          <mxGeometry x="340" y="310" width="80" height="20" as="geometry"/>
        </mxCell>
      </root>
    </mxGraphModel>
  </diagram>
  <diagram id="WJctQTPlj3U_YxOkSuW0" name="Upload">
    <mxGraphModel dx="932" dy="593" grid="1" gridSize="10" guides="1" tooltips="1" connect="1" arrows="1" fold="1" page="1" pageScale="1" pageWidth="827" pageHeight="1169" math="0" shadow="0">
      <root>
        <mxCell id="sy2_wYMWADOEbIzqvfXE-0"/>
        <mxCell id="sy2_wYMWADOEbIzqvfXE-1" parent="sy2_wYMWADOEbIzqvfXE-0"/>
        <mxCell id="jbDYWvmZpcglzYvfoJmf-0" value="" style="strokeWidth=1;shadow=0;dashed=0;align=center;html=1;shape=mxgraph.mockup.containers.browserWindow;rSize=0;strokeColor=#666666;strokeColor2=#008cff;strokeColor3=#c4c4c4;mainText=,;recursiveResize=0;" vertex="1" parent="sy2_wYMWADOEbIzqvfXE-1">
          <mxGeometry x="40" y="35" width="760" height="520" as="geometry"/>
        </mxCell>
        <mxCell id="jbDYWvmZpcglzYvfoJmf-1" value="Page 1" style="strokeWidth=1;shadow=0;dashed=0;align=center;html=1;shape=mxgraph.mockup.containers.anchor;fontSize=17;fontColor=#666666;align=left;" vertex="1" parent="jbDYWvmZpcglzYvfoJmf-0">
          <mxGeometry x="60" y="12" width="110" height="26" as="geometry"/>
        </mxCell>
        <mxCell id="jbDYWvmZpcglzYvfoJmf-2" value="https://www.draw.io" style="strokeWidth=1;shadow=0;dashed=0;align=center;html=1;shape=mxgraph.mockup.containers.anchor;rSize=0;fontSize=17;fontColor=#666666;align=left;" vertex="1" parent="jbDYWvmZpcglzYvfoJmf-0">
          <mxGeometry x="130" y="60" width="250" height="26" as="geometry"/>
        </mxCell>
        <mxCell id="jbDYWvmZpcglzYvfoJmf-13" value="" style="verticalLabelPosition=bottom;shadow=0;dashed=0;align=center;html=1;verticalAlign=top;strokeWidth=1;shape=mxgraph.mockup.graphics.simpleIcon;strokeColor=#999999;fontSize=14;" vertex="1" parent="jbDYWvmZpcglzYvfoJmf-0">
          <mxGeometry x="30" y="130" width="700" height="90" as="geometry"/>
        </mxCell>
        <mxCell id="Hf1stPAGQOgi2m9Pcc5s-0" value="" style="rounded=0;whiteSpace=wrap;html=1;strokeColor=#000000;fontSize=14;align=left;" vertex="1" parent="jbDYWvmZpcglzYvfoJmf-0">
          <mxGeometry x="30" y="250" width="260" height="230" as="geometry"/>
        </mxCell>
        <mxCell id="Hf1stPAGQOgi2m9Pcc5s-1" value="" style="shape=image;html=1;verticalAlign=top;verticalLabelPosition=bottom;labelBackgroundColor=#ffffff;imageAspect=0;aspect=fixed;image=https://cdn1.iconfinder.com/data/icons/hawcons/32/698977-icon-130-cloud-upload-128.png;strokeColor=#000000;fontSize=14;align=left;" vertex="1" parent="jbDYWvmZpcglzYvfoJmf-0">
          <mxGeometry x="90" y="301" width="128" height="128" as="geometry"/>
        </mxCell>
        <mxCell id="Hf1stPAGQOgi2m9Pcc5s-2" value="Drag and drop here&lt;br&gt;or &lt;u&gt;Browse the file&lt;/u&gt;" style="text;html=1;strokeColor=none;fillColor=none;align=center;verticalAlign=middle;whiteSpace=wrap;rounded=0;fontSize=14;" vertex="1" parent="jbDYWvmZpcglzYvfoJmf-0">
          <mxGeometry x="50" y="429" width="220" height="20" as="geometry"/>
        </mxCell>
        <mxCell id="Hf1stPAGQOgi2m9Pcc5s-3" value="Title" style="text;fontColor=#999999;fontSize=12;verticalAlign=middle;strokeColor=none;fillColor=none;align=left;" vertex="1" parent="jbDYWvmZpcglzYvfoJmf-0">
          <mxGeometry x="320" y="245" width="346" height="30" as="geometry"/>
        </mxCell>
        <mxCell id="Hf1stPAGQOgi2m9Pcc5s-4" value="Input text" style="text;fontColor=#cccccc;fontSize=16;verticalAlign=middle;strokeColor=none;fillColor=#EDEDED;align=left;" vertex="1" parent="jbDYWvmZpcglzYvfoJmf-0">
          <mxGeometry x="320" y="270" width="346" height="30" as="geometry"/>
        </mxCell>
        <mxCell id="Hf1stPAGQOgi2m9Pcc5s-5" value="" style="dashed=0;shape=line;strokeWidth=1;noLabel=1;strokeColor=#999999;fontSize=14;align=left;" vertex="1" parent="jbDYWvmZpcglzYvfoJmf-0">
          <mxGeometry x="320" y="295" width="346" height="10" as="geometry"/>
        </mxCell>
        <mxCell id="Hf1stPAGQOgi2m9Pcc5s-12" value="Description" style="text;fontColor=#999999;fontSize=12;verticalAlign=middle;strokeColor=none;fillColor=none;align=left;" vertex="1" parent="jbDYWvmZpcglzYvfoJmf-0">
          <mxGeometry x="320" y="308" width="346" height="30" as="geometry"/>
        </mxCell>
        <mxCell id="Hf1stPAGQOgi2m9Pcc5s-13" value="Input text" style="text;fontColor=#cccccc;fontSize=16;verticalAlign=middle;strokeColor=none;fillColor=#EDEDED;align=left;" vertex="1" parent="jbDYWvmZpcglzYvfoJmf-0">
          <mxGeometry x="320" y="332" width="346" height="70" as="geometry"/>
        </mxCell>
        <mxCell id="Hf1stPAGQOgi2m9Pcc5s-14" value="" style="dashed=0;shape=line;strokeWidth=1;noLabel=1;strokeColor=#999999;fontSize=14;align=left;" vertex="1" parent="jbDYWvmZpcglzYvfoJmf-0">
          <mxGeometry x="320" y="397" width="346" height="10" as="geometry"/>
        </mxCell>
        <mxCell id="Hf1stPAGQOgi2m9Pcc5s-15" value="Reset" style="dashed=0;align=center;fontSize=12;shape=rect;fillColor=#e0e0e0;strokeColor=none;fontStyle=1;shadow=1" vertex="1" parent="jbDYWvmZpcglzYvfoJmf-0">
          <mxGeometry x="320" y="429" width="100" height="36" as="geometry"/>
        </mxCell>
        <mxCell id="Hf1stPAGQOgi2m9Pcc5s-16" value="Cancel" style="dashed=0;align=center;fontSize=12;shape=rect;fillColor=#e0e0e0;strokeColor=none;fontStyle=1;shadow=1" vertex="1" parent="jbDYWvmZpcglzYvfoJmf-0">
          <mxGeometry x="443" y="429" width="100" height="36" as="geometry"/>
        </mxCell>
        <mxCell id="Hf1stPAGQOgi2m9Pcc5s-17" value="Submit" style="dashed=0;align=center;fontSize=12;shape=rect;fillColor=#e0e0e0;strokeColor=none;fontStyle=1;shadow=1" vertex="1" parent="jbDYWvmZpcglzYvfoJmf-0">
          <mxGeometry x="566" y="429" width="100" height="36" as="geometry"/>
        </mxCell>
      </root>
    </mxGraphModel>
  </diagram>
</mxfile>
